HIERARCHY
ROOT hip
{
	OFFSET 0.000000 0.000000 0.000000
	CHANNELS 6 Xposition Yposition Zposition Xrotation Zrotation Yrotation 
	JOINT abdomen
	{
		OFFSET 0.000000 3.422050 0.000000
		CHANNELS 3 Xrotation Zrotation Yrotation 
		JOINT chest
		{
			OFFSET 0.000000 8.486693 -0.684411
			CHANNELS 3 Xrotation Zrotation Yrotation 
			JOINT neck
			{
				OFFSET 0.000000 10.266162 -0.273764
				CHANNELS 3 Xrotation Zrotation Yrotation 
				JOINT head
				{
					OFFSET 0.000000 3.148285 0.000000
					CHANNELS 3 Xrotation Zrotation Yrotation 
					End Site
					{
						OFFSET 0.000000 3.148289 0.000000
					}
				}
			}
			JOINT lCollar
			{
				OFFSET 3.422053 6.707223 -0.821293
				CHANNELS 3 Yrotation Zrotation Xrotation 
				JOINT lShldr
				{
					OFFSET 3.285171 0.000000 0.000000
					CHANNELS 3 Zrotation Yrotation Xrotation 
					JOINT lForeArm
					{
						OFFSET 10.129278 0.000000 0.000000
						CHANNELS 3 Yrotation Zrotation Xrotation 
						JOINT lHand
						{
							OFFSET 8.486692 0.000000 0.000000
							CHANNELS 3 Zrotation Yrotation Xrotation 
							End Site
							{
								OFFSET 4.106464 0.000000 0.000000
							}
						}
					}
				}
			}
			JOINT rCollar
			{
				OFFSET -3.558935 6.707223 -0.821293
				CHANNELS 3 Yrotation Zrotation Xrotation 
				JOINT rShldr
				{
					OFFSET -3.148289 0.000000 0.000000
					CHANNELS 3 Zrotation Yrotation Xrotation 
					JOINT rForeArm
					{
						OFFSET -10.266159 0.000000 0.000000
						CHANNELS 3 Yrotation Zrotation Xrotation 
						JOINT rHand
						{
							OFFSET -8.349810 0.000000 0.000000
							CHANNELS 3 Zrotation Yrotation Xrotation 
							End Site
							{
								OFFSET -4.106464 0.000000 0.000000
							}
						}
					}
				}
			}
		}
	}
	JOINT lThigh
	{
		OFFSET 5.338403 -1.642589 1.368821
		CHANNELS 3 Xrotation Zrotation Yrotation 
		JOINT lShin
		{
			OFFSET -2.053232 -20.121670 0.000000
			CHANNELS 3 Xrotation Zrotation Yrotation 
			JOINT lFoot
			{
				OFFSET 0.000000 -19.300380 -1.231939
				CHANNELS 3 Xrotation Yrotation Zrotation 
				End Site
				{
					OFFSET 0.000000 -2.463878 4.653993
				}
			}
		}
	}
	JOINT rThigh
	{
		OFFSET -5.338403 -1.642589 1.368821
		CHANNELS 3 Xrotation Zrotation Yrotation 
		JOINT rShin
		{
			OFFSET 2.053232 -20.121670 0.000000
			CHANNELS 3 Xrotation Zrotation Yrotation 
			JOINT rFoot
			{
				OFFSET 0.000000 -19.300380 -1.231939
				CHANNELS 3 Xrotation Yrotation Zrotation 
				End Site
				{
					OFFSET 0.000000 -2.463878 4.653993
				}
			}
		}
	}
}
MOTION
Frames: 16
Frame Time: 0.033264
19.995884 22.721600 11.561401 120.994522 0.015252 149.985794 10.680892 -0.000825 15.997592 32.475590 -0.001336 4.548573 29.800711 -27.000698 -0.001572 -8.002364 -5.001677 -8.001672 -2.685155 -41.689529 -1.446070 -26.932276 0.676477 55.025639 -5.147592 0.927405 35.720760 8.126196 -9.209318 -12.073394 -0.160651 -17.491274 -6.804804 67.716171 -2.854124 54.892570 33.157642 4.889744 35.384552 2.483405 -16.552233 1.359004 -75.153419 38.162167 5.416951 19.511032 2.933102 0.268350 0.000000 0.000000 0.000000 -82.300735 -50.913788 8.828927 101.544266 -17.591599 26.556862 11.907401 1.325547 -23.617062 
19.995884 22.721600 11.561401 120.994522 0.015252 149.985794 10.204863 -0.000873 15.997642 33.382969 -0.001370 4.548522 29.419357 -27.000700 -0.001543 -8.002360 -5.001649 -7.231024 -3.088687 -41.187988 -1.805502 -27.378944 0.693075 55.018078 -5.368601 0.988069 35.726578 8.166275 -9.071420 -12.327274 -0.078527 -17.580597 -7.164030 67.716171 -2.854124 54.892570 33.157642 4.889744 35.384552 2.499112 -16.468534 1.157927 -75.170906 38.162167 5.416983 19.511034 2.933102 0.268350 0.000000 0.000000 0.000000 -81.828323 -51.076561 8.500597 101.360016 -17.724827 26.626863 11.907401 1.325547 -23.617062 
19.995884 22.721600 11.561401 120.994522 0.015252 149.985794 9.728873 -0.000920 15.997695 34.290119 -0.001404 4.548469 29.037823 -27.000706 -0.001517 -8.002357 -5.001620 -6.458802 -3.484962 -40.684628 -2.157506 -27.825596 0.709613 55.010387 -5.589616 1.048710 35.732628 8.205719 -8.933349 -12.580954 0.003045 -17.670406 -7.523281 67.716171 -2.854124 54.892570 33.157642 4.889744 35.384552 2.514506 -16.384779 0.956964 -75.188393 38.162167 5.417015 19.511032 2.933102 0.268350 0.000000 0.000000 0.000000 -81.352783 -51.237614 8.168987 101.175446 -17.857830 26.697355 11.907401 1.325547 -23.617062 
19.995884 22.721600 11.561401 120.994522 0.015252 149.985794 9.252928 -0.000968 15.997746 35.196930 -0.001437 4.548417 28.656111 -27.000719 -0.001489 -8.002350 -5.001590 -5.685066 -3.874159 -40.179535 -2.502260 -28.272215 0.726092 55.002590 -5.810637 1.109325 35.738914 8.244530 -8.795113 -12.834433 0.084059 -17.760696 -7.882552 67.716171 -2.854124 54.892570 33.157642 4.889744 35.384552 2.529586 -16.300983 0.756114 -75.205864 38.162170 5.417052 19.511032 2.933101 0.268350 0.000000 0.000000 0.000000 -80.874123 -51.396923 7.834103 100.990570 -17.990622 26.768358 11.907401 1.325547 -23.617062 
19.995884 22.721600 11.561401 120.994522 0.015252 149.985794 8.777050 -0.001014 15.997801 36.103283 -0.001468 4.548363 28.274229 -27.000729 -0.001462 -8.002343 -5.001562 -4.909894 -4.256453 -39.672791 -2.839938 -28.718773 0.742503 54.994644 -6.031661 1.169913 35.745434 8.282703 -8.656716 -13.087711 0.164509 -17.851461 -8.241835 67.716171 -2.854124 54.892570 33.157642 4.889744 35.384552 2.544354 -16.217133 0.555379 -75.223343 38.162163 5.417080 19.511032 2.933102 0.268350 0.000000 0.000000 0.000000 -80.392342 -51.554459 7.495946 100.805412 -18.123192 26.839863 11.907401 1.325547 -23.617062 
19.995884 22.721600 11.561401 120.994522 0.015252 149.985794 8.301256 -0.001061 15.997857 37.009071 -0.001500 4.548309 27.892185 -27.000734 -0.001435 -8.002337 -5.001533 -4.133346 -4.632017 -39.164494 -3.170711 -29.165274 0.758851 54.986584 -6.252688 1.230473 35.752193 8.320242 -8.518162 -13.340785 0.244392 -17.942686 -8.601124 67.716171 -2.854124 54.892570 33.157642 4.889744 35.384552 2.558809 -16.133236 0.354759 -75.240837 38.162178 5.417115 19.511032 2.933102 0.268350 0.000000 0.000000 0.000000 -79.907448 -51.710209 7.154530 100.619926 -18.255527 26.911865 11.907401 1.325547 -23.617062 
19.995884 22.721600 11.561401 120.994522 0.015252 149.985794 7.825559 -0.001107 15.997911 37.914188 -0.001530 4.548256 27.509983 -27.000746 -0.001408 -8.002331 -5.001503 -3.355490 -5.001016 -38.654709 -3.494744 -29.611691 0.775133 54.978390 -6.473719 1.291004 35.759186 8.357146 -8.379457 -13.593661 0.323700 -18.034380 -8.960414 67.716171 -2.854124 54.892570 33.157642 4.889744 35.384552 2.572951 -16.049295 0.154254 -75.258301 38.162174 5.417148 19.511032 2.933102 0.268350 0.000000 0.000000 0.000000 -79.419434 -51.864117 6.809851 100.434143 -18.387646 26.984379 11.907401 1.325547 -23.617062 
19.995884 22.721600 11.561401 120.994522 0.015252 149.985794 7.349974 -0.001152 15.997961 38.818501 -0.001559 4.548201 27.127636 -27.000748 -0.001378 -8.002321 -5.001474 -2.576398 -5.363609 -38.143509 -3.812196 -30.058023 0.791347 54.970074 -6.694749 1.351504 35.766403 8.393413 -8.240602 -13.846333 0.402431 -18.126526 -9.319695 67.716171 -2.854124 54.892570 33.157642 4.889744 35.384552 2.586782 -15.965315 -0.046136 -75.275780 38.162178 5.417182 19.511032 2.933102 0.268350 0.000000 0.000000 0.000000 -78.928345 -52.016212 6.461923 100.248032 -18.519524 27.057386 11.907401 1.325547 -23.617062 
19.995884 22.721600 11.561401 120.994522 0.015252 149.985794 6.874523 -0.001197 15.998019 39.721912 -0.001587 4.548146 26.745161 -27.000755 -0.001350 -8.002316 -5.001446 -1.796137 -5.719959 -37.630978 -4.123227 -30.504253 0.807492 54.961639 -6.915777 1.411973 35.773853 8.429047 -8.101604 -14.098802 0.480578 -18.219128 -9.678964 67.716171 -2.854124 54.892570 33.157642 4.889744 35.384552 2.600300 -15.881293 -0.246410 -75.293274 38.162182 5.417213 19.511030 2.933101 0.268350 0.000000 0.000000 0.000000 -78.434151 -52.166412 6.110753 100.061623 -18.651173 27.130903 11.907401 1.325547 -23.617062 
19.995884 22.721600 11.561401 120.994522 0.015252 149.985794 6.399220 -0.001242 15.998074 40.624317 -0.001615 4.548091 26.362549 -27.000763 -0.001323 -8.002308 -5.001418 -1.014775 -6.070218 -37.117207 -4.427989 -30.950357 0.823567 54.953068 -7.136806 1.472407 35.781548 8.464046 -7.962468 -14.351069 0.558136 -18.312159 -10.038206 67.716171 -2.854124 54.892570 33.157642 4.889744 35.384552 2.613506 -15.797227 -0.446566 -75.310730 38.162178 5.417249 19.511032 2.933102 0.268350 0.000000 0.000000 0.000000 -77.936859 -52.314713 5.756344 99.874901 -18.782581 27.204922 11.907401 1.325547 -23.617062 
19.995884 22.721600 11.561401 120.994522 0.015252 149.985794 5.924080 -0.001286 15.998130 41.525585 -0.001642 4.548035 25.979828 -27.000776 -0.001296 -8.002297 -5.001389 -0.232388 -6.414534 -36.602238 -4.726629 -31.396332 0.839570 54.944386 -7.357829 1.532806 35.789474 8.498411 -7.823202 -14.603138 0.635101 -18.405643 -10.397428 67.716171 -2.854124 54.892570 33.157642 4.889744 35.384552 2.626401 -15.713127 -0.646606 -75.328224 38.162186 5.417281 19.511032 2.933102 0.268350 0.000000 0.000000 0.000000 -77.436501 -52.461098 5.398716 99.687866 -18.913759 27.279448 11.907401 1.325547 -23.617062 
19.995884 22.721600 11.561401 120.994522 0.015252 149.985794 5.449121 -0.001330 15.998188 42.425636 -0.001667 4.547979 25.596987 -27.000782 -0.001267 -8.002287 -5.001359 0.550961 -6.753054 -36.086159 -5.019294 -31.842165 0.855498 54.935574 -7.578846 1.593169 35.797615 8.532140 -7.683803 -14.855000 0.711469 -18.499544 -10.756611 67.716171 -2.854124 54.892570 33.157642 4.889744 35.384552 2.638985 -15.628989 -0.846529 -75.345695 38.162182 5.417315 19.511032 2.933102 0.268350 0.000000 0.000000 0.000000 -76.933090 -52.605534 5.037889 99.500519 -19.044687 27.354473 11.907401 1.325547 -23.617062 
19.995884 22.721600 11.561401 120.994522 0.015252 149.985794 4.974356 -0.001372 15.998241 43.324329 -0.001692 4.547923 25.214041 -27.000788 -0.001239 -8.002280 -5.001332 1.335194 -7.085923 -35.569046 -5.306124 -32.287838 0.871353 54.926651 -7.799859 1.653495 35.806004 8.565236 -7.544280 -15.106663 0.787233 -18.593880 -11.115758 67.716171 -2.854124 54.892570 33.157642 4.889744 35.384552 2.651258 -15.544816 -1.046333 -75.363190 38.162193 5.417346 19.511032 2.933102 0.268350 0.000000 0.000000 0.000000 -76.426643 -52.748013 4.673864 99.312874 -19.175373 27.430012 11.907401 1.325547 -23.617062 
19.995884 22.721600 11.561401 120.994522 0.015252 149.985794 4.499804 -0.001415 15.998300 44.221581 -0.001716 4.547866 24.831005 -27.000797 -0.001211 -8.002270 -5.001304 2.120242 -7.413273 -35.050945 -5.587256 -32.733345 0.887130 54.917603 -8.020864 1.713781 35.814625 8.597695 -7.404635 -15.358123 0.862390 -18.688625 -11.474856 67.716171 -2.854124 54.892570 33.157642 4.889744 35.384552 2.663221 -15.460613 -1.246021 -75.380646 38.162186 5.417379 19.511034 2.933102 0.268350 0.000000 0.000000 0.000000 -75.917168 -52.888485 4.306664 99.124893 -19.305815 27.506052 11.907401 1.325547 -23.617062 
19.995884 22.721600 11.561401 120.994522 0.015252 149.985794 4.025481 -0.001457 15.998358 45.117287 -0.001739 4.547811 24.447886 -27.000801 -0.001183 -8.002259 -5.001275 2.906028 -7.735244 -34.531952 -5.862823 -33.178665 0.902830 54.908447 -8.241862 1.774028 35.823479 8.629522 -7.264877 -15.609375 0.936935 -18.783789 -11.833902 67.716171 -2.854124 54.892570 33.157642 4.889744 35.384552 2.674872 -15.376375 -1.445588 -75.398140 38.162189 5.417411 19.511032 2.933102 0.268350 0.000000 0.000000 0.000000 -75.404694 -53.026951 3.936305 98.936592 -19.435997 27.582590 11.907401 1.325547 -23.617062 
19.995884 22.721600 11.561401 120.994522 0.015252 149.985794 3.551402 -0.001499 15.998414 46.011318 -0.001760 4.547752 24.064682 -27.000801 -0.001154 -8.002252 -5.001248 3.692485 -8.051965 -34.012119 -6.132957 -33.623787 0.918454 54.899166 -8.462850 1.834231 35.832558 8.660717 -7.125009 -15.860432 1.010863 -18.879356 -12.192887 67.716171 -2.854124 54.892570 33.157642 4.889744 35.384552 2.686214 -15.292110 -1.645037 -75.415596 38.162186 5.417449 19.511032 2.933102 0.268350 0.000000 0.000000 0.000000 -74.889236 -53.163357 3.562818 98.748009 -19.565937 27.659653 11.907401 1.325547 -23.617062 
